<?xml version="1.0" encoding="UTF-8" standalone="no"?>
<!-- Created with Inkscape (http://www.inkscape.org/) -->

<svg
   width="586.53259mm"
   height="83.649811mm"
   viewBox="0 0 586.53259 83.64981"
   version="1.1"
   id="svg1"
   xmlns="http://www.w3.org/2000/svg"
   xmlns:svg="http://www.w3.org/2000/svg">
  <defs
     id="defs1" />
  <g
     id="text3"
     style="line-height:0;white-space:pre;shape-padding:7.82254"
     transform="matrix(0.26458333,0,0,0.26458333,-76.366922,-143.17529)"
     aria-label="YetAnotherNet&#10;A Data-Driven Networking Library, inspired by Bevy_Renet &amp; BridgeNet2, made for ECS.">
    <rect
       style="fill:#1f242b;fill-opacity:1;stroke-width:0.264583"
       id="rect1337"
       width="586.53259"
       height="2.2076609"
       x="1.1550813e-05"
       y="81.442154"
       transform="matrix(3.7795276,0,0,3.7795276,288.63089,541.13496)" />
    <path
       style="font-weight:900;font-size:160px;line-height:1.5;font-family:Sans;-inkscape-font-specification:'Sans, Heavy';text-align:center;text-anchor:middle;fill:#e6edf3"
       d="m 849.27637,546.36934 -42.89063,71.32812 v 45 h -30 v -43.59375 l -43.59375,-72.73437 h 34.0625 l 25.15625,45 24.29688,-45 z m 100.39062,77.65625 h -64.375 q 0.625,10.3125 7.8125,15.78125 7.26563,5.46875 21.32813,5.46875 8.90625,0 17.26562,-3.20313 8.35938,-3.20312 13.20313,-6.875 h 3.125 v 22.57813 q -9.53125,3.82812 -17.96875,5.54687 -8.4375,1.71875 -18.67188,1.71875 -26.40625,0 -40.46875,-11.875 -14.0625,-11.875 -14.0625,-33.82812 0,-21.71875 13.28125,-34.375 13.35938,-12.73438 36.5625,-12.73438 21.40625,0 32.1875,10.85938 10.78125,10.78125 10.78125,31.09375 z m -27.96875,-16.48438 q -0.23437,-8.82812 -4.375,-13.28125 -4.14062,-4.45312 -12.89062,-4.45312 -8.125,0 -13.35938,4.21875 -5.23437,4.21875 -5.85937,13.51562 z m 103.90626,54.375 q -4.5313,1.17188 -9.6094,1.79688 -5.0781,0.70312 -12.4219,0.70312 -16.40621,0 -24.45308,-6.64062 -7.96875,-6.64063 -7.96875,-22.73438 v -41.01562 h -11.5625 v -19.0625 h 11.5625 v -25.07813 h 28.125 v 25.07813 h 26.32813 v 19.0625 h -26.32813 v 31.09375 q 0,4.60937 0.0781,8.04687 0.0781,3.4375 1.25003,6.17188 1.0937,2.73437 3.8281,4.375 2.8125,1.5625 8.125,1.5625 2.1875,0 5.7031,-0.9375 3.5938,-0.9375 5,-1.71875 h 2.3438 z m 125.8594,0.78125 h -31.0157 l -8.0468,-23.51562 h -43.125 l -8.0469,23.51562 h -30.2344 l 42.9688,-116.32812 h 34.5312 z m -46.3282,-44.84375 -14.2968,-41.71875 -14.2969,41.71875 z m 149.6094,44.84375 h -28.2812 v -43.51562 q 0,-5.3125 -0.5469,-10.54688 -0.5469,-5.3125 -1.875,-7.8125 -1.5625,-2.89062 -4.6094,-4.21875 -2.9687,-1.32812 -8.3594,-1.32812 -3.8281,0 -7.8125,1.25 -3.9062,1.25 -8.5156,3.98437 v 62.1875 h -28.125 v -87.73437 h 28.125 v 9.6875 q 7.5,-5.85938 14.375,-8.98438 6.9531,-3.125 15.3906,-3.125 14.2188,0 22.1875,8.28125 8.0469,8.28125 8.0469,24.76563 z m 115.5469,-43.82812 q 0,21.64062 -12.6563,34.14062 -12.5781,12.42188 -35.3906,12.42188 -22.8125,0 -35.4687,-12.42188 -12.5782,-12.5 -12.5782,-34.14062 0,-21.79688 12.6563,-34.21875 12.7344,-12.42188 35.3906,-12.42188 22.9688,0 35.4688,12.5 12.5781,12.5 12.5781,34.14063 z m -34.6094,21.32812 q 2.7344,-3.35937 4.0625,-8.04687 1.4063,-4.76563 1.4063,-13.125 0,-7.73438 -1.4063,-12.96875 -1.4062,-5.23438 -3.9062,-8.35938 -2.5,-3.20312 -6.0157,-4.53125 -3.5156,-1.32812 -7.5781,-1.32812 -4.0625,0 -7.2656,1.09375 -3.125,1.09375 -6.0156,4.375 -2.5782,3.04687 -4.1407,8.35937 -1.4843,5.3125 -1.4843,13.35938 0,7.1875 1.3281,12.5 1.3281,5.23437 3.9062,8.4375 2.5,3.04687 5.9375,4.45312 3.5157,1.40625 7.9688,1.40625 3.8281,0 7.2656,-1.25 3.5156,-1.32812 5.9375,-4.375 z m 110.8594,21.71875 q -4.5313,1.17188 -9.6094,1.79688 -5.0781,0.70312 -12.4219,0.70312 -16.4062,0 -24.4531,-6.64062 -7.9687,-6.64063 -7.9687,-22.73438 v -41.01562 h -11.5625 v -19.0625 h 11.5625 v -25.07813 h 28.125 v 25.07813 h 26.3281 v 19.0625 h -26.3281 v 31.09375 q 0,4.60937 0.078,8.04687 0.078,3.4375 1.25,6.17188 1.0937,2.73437 3.8281,4.375 2.8125,1.5625 8.125,1.5625 2.1875,0 5.7031,-0.9375 3.5938,-0.9375 5,-1.71875 h 2.3438 z m 104.9219,0.78125 h -28.2813 v -43.51562 q 0,-5.3125 -0.5469,-10.54688 -0.5468,-5.3125 -1.875,-7.8125 -1.5625,-2.89062 -4.6093,-4.21875 -2.9688,-1.32812 -8.3594,-1.32812 -3.8281,0 -7.8125,1.25 -3.9063,1.25 -8.5156,3.98437 v 62.1875 h -28.125 v -121.5625 h 28.125 v 43.51563 q 7.5,-5.85938 14.375,-8.98438 6.9531,-3.125 15.3906,-3.125 14.2187,0 22.1875,8.28125 8.0469,8.28125 8.0469,24.76563 z m 112.2656,-38.67187 h -64.375 q 0.625,10.3125 7.8125,15.78125 7.2656,5.46875 21.3281,5.46875 8.9063,0 17.2656,-3.20313 8.3594,-3.20312 13.2032,-6.875 h 3.125 v 22.57813 q -9.5313,3.82812 -17.9688,5.54687 -8.4375,1.71875 -18.6719,1.71875 -26.4062,0 -40.4687,-11.875 -14.0625,-11.875 -14.0625,-33.82812 0,-21.71875 13.2812,-34.375 13.3594,-12.73438 36.5625,-12.73438 21.4063,0 32.1875,10.85938 10.7813,10.78125 10.7813,31.09375 z m -27.9688,-16.48438 q -0.2343,-8.82812 -4.375,-13.28125 -4.1406,-4.45312 -12.8906,-4.45312 -8.125,0 -13.3594,4.21875 -5.2343,4.21875 -5.8593,13.51562 z m 111.4063,-5.78125 h -2.5 q -1.7969,-0.625 -5.7813,-0.9375 -3.9843,-0.3125 -6.6406,-0.3125 -6.0156,0 -10.625,0.78125 -4.6094,0.78125 -9.9219,2.65625 v 58.75 h -28.125 v -87.73437 h 28.125 v 12.89062 q 9.2969,-7.96875 16.1719,-10.54687 6.875,-2.65625 12.6563,-2.65625 1.4843,0 3.3593,0.0781 1.875,0.0781 3.2813,0.23438 z m 123.2812,60.9375 h -28.9062 l -49.375,-79.84375 v 79.84375 h -27.5 V 546.36934 h 35.8594 l 42.4218,66.64062 v -66.64062 h 27.5 z m 114.5313,-38.67187 h -64.375 q 0.625,10.3125 7.8125,15.78125 7.2656,5.46875 21.3281,5.46875 8.9063,0 17.2656,-3.20313 8.3594,-3.20312 13.2032,-6.875 h 3.125 v 22.57813 q -9.5313,3.82812 -17.9688,5.54687 -8.4375,1.71875 -18.6719,1.71875 -26.4062,0 -40.4687,-11.875 -14.0625,-11.875 -14.0625,-33.82812 0,-21.71875 13.2812,-34.375 13.3594,-12.73438 36.5625,-12.73438 21.4063,0 32.1875,10.85938 10.7813,10.78125 10.7813,31.09375 z m -27.9688,-16.48438 q -0.2343,-8.82812 -4.375,-13.28125 -4.1406,-4.45312 -12.8906,-4.45312 -8.125,0 -13.3594,4.21875 -5.2343,4.21875 -5.8593,13.51562 z m 103.9063,54.375 q -4.5313,1.17188 -9.6094,1.79688 -5.0781,0.70312 -12.4219,0.70312 -16.4062,0 -24.4531,-6.64062 -7.9687,-6.64063 -7.9687,-22.73438 v -41.01562 h -11.5625 v -19.0625 h 11.5625 v -25.07813 h 28.125 v 25.07813 h 26.3281 v 19.0625 h -26.3281 v 31.09375 q 0,4.60937 0.078,8.04687 0.078,3.4375 1.25,6.17188 1.0937,2.73437 3.8281,4.375 2.8125,1.5625 8.125,1.5625 2.1875,0 5.7031,-0.9375 3.5938,-0.9375 5,-1.71875 h 2.3438 z"
       id="path94" />
    <path
       style="font-weight:500;font-size:53.3333px;line-height:1;font-family:Inter;-inkscape-font-specification:'Inter, Medium';text-align:center;text-anchor:middle;fill:#848d97"
       d="m 294.84301,779.41629 3.5606,-10.26515 h 15.15151 l 3.54166,10.26515 h 6.21212 l -13.95832,-38.78786 h -6.76136 l -13.95833,38.78786 z m 5.26515,-15.18939 5.71969,-16.55302 h 0.30303 l 5.7197,16.55302 z m 55.47345,15.18939 c 11.81818,0 18.6553,-7.32954 18.6553,-19.45075 0,-12.06438 -6.83712,-19.33711 -18.25757,-19.33711 H 343.0248 v 38.78786 z m -6.70454,-5.11363 v -28.56059 h 6.74242 c 8.48485,0 12.85984,5.07575 12.85984,14.22347 0,9.1856 -4.37499,14.33712 -13.21969,14.33712 z m 40.64387,5.75757 c 4.8106,0 7.51894,-2.44318 8.59848,-4.62121 h 0.22727 v 3.97727 h 5.5303 v -19.31817 c 0,-8.4659 -6.66666,-10.15151 -11.28787,-10.15151 -5.26515,0 -10.11363,2.12121 -12.00757,7.42424 l 5.32197,1.21212 c 0.83333,-2.06439 2.95454,-4.05303 6.76136,-4.05303 3.6553,0 5.5303,1.91288 5.5303,5.20833 v 0.13258 c 0,2.06439 -2.12121,2.02651 -7.34848,2.63257 -5.51136,0.64394 -11.1553,2.08333 -11.1553,8.69318 0,5.71969 4.29924,8.86363 9.82954,8.86363 z m 1.23106,-4.54545 c -3.20076,0 -5.51136,-1.4394 -5.51136,-4.24242 0,-3.03031 2.68939,-4.10985 5.96591,-4.54546 1.83712,-0.24621 6.19317,-0.73863 7.00757,-1.55303 v 3.75 c 0,3.44697 -2.74621,6.59091 -7.46212,6.59091 z m 34.24236,-25.18938 h -5.9659 v -6.96969 h -5.66288 v 6.96969 h -4.26136 v 4.54545 h 4.26136 v 17.17802 c -0.0189,5.28409 4.01515,7.8409 8.48484,7.74621 1.79924,-0.0189 3.01137,-0.35985 3.67424,-0.60606 l -1.02272,-4.67803 c -0.37879,0.0758 -1.07955,0.24621 -1.98864,0.24621 -1.83712,0 -3.48484,-0.60606 -3.48484,-3.88257 v -16.00378 h 5.9659 z m 14.71587,29.73483 c 4.8106,0 7.51893,-2.44318 8.59848,-4.62121 h 0.22727 v 3.97727 h 5.5303 v -19.31817 c 0,-8.4659 -6.66666,-10.15151 -11.28787,-10.15151 -5.26515,0 -10.11363,2.12121 -12.00757,7.42424 l 5.32196,1.21212 c 0.83334,-2.06439 2.95455,-4.05303 6.76136,-4.05303 3.6553,0 5.5303,1.91288 5.5303,5.20833 v 0.13258 c 0,2.06439 -2.12121,2.02651 -7.34848,2.63257 -5.51136,0.64394 -11.15529,2.08333 -11.15529,8.69318 0,5.71969 4.29924,8.86363 9.82954,8.86363 z m 1.23106,-4.54545 c -3.20076,0 -5.51136,-1.4394 -5.51136,-4.24242 0,-3.03031 2.68939,-4.10985 5.9659,-4.54546 1.83712,-0.24621 6.19318,-0.73863 7.00757,-1.55303 v 3.75 c 0,3.44697 -2.74621,6.59091 -7.46211,6.59091 z m 37.80296,-14.94318 h -17.19696 v 4.9053 h 17.19696 z m 20.56814,18.84469 c 11.81818,0 18.6553,-7.32954 18.6553,-19.45075 0,-12.06438 -6.83712,-19.33711 -18.25757,-19.33711 h -12.95454 v 38.78786 z m -6.70454,-5.11363 v -28.56059 h 6.74242 c 8.48485,0 12.85984,5.07575 12.85984,14.22347 0,9.1856 -4.37499,14.33712 -13.21968,14.33712 z m 32.17798,5.11363 h 5.66287 v -17.76514 c 0,-3.80682 2.93561,-6.55303 6.95075,-6.55303 1.17425,0 2.5,0.20834 2.95455,0.34091 v -5.41666 c -0.56818,-0.0758 -1.68561,-0.13258 -2.4053,-0.13258 -3.40909,0 -6.32576,1.93182 -7.38636,5.05682 h -0.30303 v -4.62121 h -5.47348 z m 20.49244,0 h 5.66288 V 750.3254 h -5.66288 z m 2.85985,-33.57953 c 1.95076,0 3.57954,-1.51515 3.57954,-3.37121 0,-1.85606 -1.62878,-3.39015 -3.57954,-3.39015 -1.9697,0 -3.57954,1.53409 -3.57954,3.39015 0,1.85606 1.60984,3.37121 3.57954,3.37121 z m 35.30296,4.48864 h -6.07954 l -7.34848,22.38635 h -0.30303 l -7.36742,-22.38635 h -6.07954 l 10.56817,29.09089 h 6.0606 z m 16.8371,29.67801 c 6.34469,0 10.83333,-3.125 12.12121,-7.85984 l -5.35985,-0.96591 c -1.02273,2.74621 -3.48485,4.14772 -6.70454,4.14772 -4.84848,0 -8.10606,-3.14393 -8.25757,-8.74999 h 20.6818 v -2.00758 c 0,-10.51135 -6.28787,-14.6212 -12.87878,-14.6212 -8.10605,0 -13.44696,6.17424 -13.44696,15.11363 0,9.03408 5.26515,14.94317 13.84469,14.94317 z m -8.18181,-17.67044 c 0.22727,-4.12879 3.21969,-7.70833 7.82196,-7.70833 4.39394,0 7.27272,3.25757 7.29166,7.70833 z m 32.63256,-0.1894 c 0,-4.64015 2.84091,-7.29166 6.7803,-7.29166 3.84469,0 6.17424,2.51894 6.17424,6.74242 v 17.82196 h 5.66287 v -18.50378 c 0,-7.19696 -3.95833,-10.9659 -9.9053,-10.9659 -4.37499,0 -7.23484,2.02651 -8.57954,5.11363 h -0.35984 v -4.73484 h -5.43561 v 29.09089 h 5.66288 z m 72.08336,-21.51514 h -5.79545 v 28.48484 h -0.35985 l -19.73483,-28.48484 h -5.41667 v 38.78786 h 5.85227 v -28.44695 h 0.35985 l 19.7159,28.44695 h 5.37878 z m 20.606,39.37498 c 6.34469,0 10.83332,-3.125 12.1212,-7.85984 l -5.35984,-0.96591 c -1.02273,2.74621 -3.48485,4.14772 -6.70455,4.14772 -4.84848,0 -8.10605,-3.14393 -8.25757,-8.74999 h 20.68181 v -2.00758 c 0,-10.51135 -6.28788,-14.6212 -12.87878,-14.6212 -8.10606,0 -13.44696,6.17424 -13.44696,15.11363 0,9.03408 5.26515,14.94317 13.84469,14.94317 z m -8.18182,-17.67044 c 0.22728,-4.12879 3.2197,-7.70833 7.82197,-7.70833 4.39393,0 7.27272,3.25757 7.29166,7.70833 z m 40.54926,-12.00757 h -5.96591 v -6.96969 h -5.66287 v 6.96969 h -4.26136 v 4.54545 h 4.26136 v 17.17802 c -0.0189,5.28409 4.01515,7.8409 8.48484,7.74621 1.79924,-0.0189 3.01136,-0.35985 3.67424,-0.60606 l -1.02273,-4.67803 c -0.37878,0.0758 -1.07954,0.24621 -1.98863,0.24621 -1.83712,0 -3.48485,-0.60606 -3.48485,-3.88257 v -16.00378 h 5.96591 z m 12.55677,29.09089 h 5.75758 l 5.90908,-21.00378 h 0.43561 l 5.90909,21.00378 h 5.77651 l 8.54166,-29.09089 h -5.85227 l -5.66288,21.26892 h -0.28409 l -5.68181,-21.26892 h -5.85227 l -5.71969,21.36362 h -0.28409 l -5.70076,-21.36362 h -5.85227 z m 49.05293,0.58712 c 8.20075,0 13.56059,-6.00378 13.56059,-14.99999 0,-9.05303 -5.35984,-15.05681 -13.56059,-15.05681 -8.20076,0 -13.5606,6.00378 -13.5606,15.05681 0,8.99621 5.35984,14.99999 13.5606,14.99999 z m 0.0189,-4.75378 c -5.35985,0 -7.85985,-4.67803 -7.85985,-10.26515 0,-5.56818 2.5,-10.30302 7.85985,-10.30302 5.32196,0 7.82196,4.73484 7.82196,10.30302 0,5.58712 -2.5,10.26515 -7.82196,10.26515 z m 19.8484,4.16666 h 5.66288 v -17.76514 c 0,-3.80682 2.9356,-6.55303 6.95075,-6.55303 1.17424,0 2.5,0.20834 2.95454,0.34091 v -5.41666 c -0.56818,-0.0758 -1.6856,-0.13258 -2.4053,-0.13258 -3.40909,0 -6.32575,1.93182 -7.38636,5.05682 h -0.30303 v -4.62121 h -5.47348 z m 20.49249,0 h 5.66288 v -10.32196 l 2.82197,-2.82197 9.88635,13.14393 h 6.95076 l -12.57575,-16.60984 11.78029,-12.48105 h -6.7803 l -11.5909,12.3106 h -0.49242 v -22.00757 h -5.66288 z m 29.67798,0 h 5.66288 V 750.3254 h -5.66288 z m 2.85985,-33.57953 c 1.95075,0 3.57954,-1.51515 3.57954,-3.37121 0,-1.85606 -1.62879,-3.39015 -3.57954,-3.39015 -1.9697,0 -3.57955,1.53409 -3.57955,3.39015 0,1.85606 1.60985,3.37121 3.57955,3.37121 z m 16.07952,16.30681 c 0,-4.64015 2.8409,-7.29166 6.78029,-7.29166 3.8447,0 6.17424,2.51894 6.17424,6.74242 v 17.82196 h 5.66288 v -18.50378 c 0,-7.19696 -3.95833,-10.9659 -9.9053,-10.9659 -4.375,0 -7.23484,2.02651 -8.57954,5.11363 h -0.35985 v -4.73484 h -5.4356 v 29.09089 h 5.66288 z m 38.3901,28.78786 c 7.4053,0 13.12499,-3.39015 13.12499,-10.8712 V 750.3254 h -5.54924 v 4.7159 h -0.41666 c -1.00379,-1.79924 -3.01136,-5.09469 -8.42803,-5.09469 -7.02651,0 -12.19696,5.54924 -12.19696,14.8106 0,9.2803 5.28409,14.22347 12.15908,14.22347 5.34091,0 7.4053,-3.01136 8.42803,-4.86742 h 0.35985 v 5.7197 c 0,4.56439 -3.125,6.53408 -7.42424,6.53408 -4.71591,0 -6.55303,-2.36742 -7.55681,-4.03409 l -4.86743,2.00758 c 1.53409,3.5606 5.41667,6.5909 12.36742,6.5909 z m -0.0568,-16.64771 c -5.05681,0 -7.68939,-3.88258 -7.68939,-9.60227 0,-5.58712 2.57576,-9.92424 7.68939,-9.92424 4.94318,0 7.5947,4.03409 7.5947,9.92424 0,6.00378 -2.70834,9.60227 -7.5947,9.60227 z m 35.35987,5.13257 h 23.42802 v -5.03788 h -17.57575 v -33.74998 h -5.85227 z m 29.64016,0 h 5.6629 V 750.3254 h -5.6629 z m 2.8599,-33.57953 c 1.9507,0 3.5795,-1.51515 3.5795,-3.37121 0,-1.85606 -1.6288,-3.39015 -3.5795,-3.39015 -1.9697,0 -3.5796,1.53409 -3.5796,3.39015 0,1.85606 1.6099,3.37121 3.5796,3.37121 z m 10.8711,33.57953 h 5.5303 v -4.52651 h 0.4735 c 1.0227,1.85606 3.1061,5.09469 8.4091,5.09469 7.0454,0 12.1591,-5.64393 12.1591,-15.05681 0,-9.43181 -5.1894,-14.98105 -12.2159,-14.98105 -5.3978,0 -7.3485,3.29545 -8.3523,5.09469 h -0.3409 v -14.41287 h -5.6629 z m 5.5493,-14.54545 c 0,-6.07954 2.6515,-10.11363 7.5947,-10.11363 5.1325,0 7.7083,4.33712 7.7083,10.11363 0,5.83333 -2.6515,10.28409 -7.7083,10.28409 -4.8675,0 -7.5947,-4.16667 -7.5947,-10.28409 z m 27.3673,14.54545 h 5.6629 v -17.76514 c 0,-3.80682 2.9356,-6.55303 6.9508,-6.55303 1.1742,0 2.5,0.20834 2.9545,0.34091 v -5.41666 c -0.5682,-0.0758 -1.6856,-0.13258 -2.4053,-0.13258 -3.4091,0 -6.3258,1.93182 -7.3864,5.05682 h -0.303 v -4.62121 h -5.4735 z m 28.6932,0.64394 c 4.8106,0 7.5189,-2.44318 8.5984,-4.62121 h 0.2273 v 3.97727 h 5.5303 v -19.31817 c 0,-8.4659 -6.6666,-10.15151 -11.2879,-10.15151 -5.2651,0 -10.1136,2.12121 -12.0075,7.42424 l 5.3219,1.21212 c 0.8334,-2.06439 2.9546,-4.05303 6.7614,-4.05303 3.6553,0 5.5303,1.91288 5.5303,5.20833 v 0.13258 c 0,2.06439 -2.1212,2.02651 -7.3485,2.63257 -5.5113,0.64394 -11.1553,2.08333 -11.1553,8.69318 0,5.71969 4.2993,8.86363 9.8296,8.86363 z m 1.231,-4.54545 c -3.2007,0 -5.5113,-1.4394 -5.5113,-4.24242 0,-3.03031 2.6894,-4.10985 5.9659,-4.54546 1.8371,-0.24621 6.1932,-0.73863 7.0075,-1.55303 v 3.75 c 0,3.44697 -2.7462,6.59091 -7.4621,6.59091 z m 20.6629,3.90151 h 5.6628 v -17.76514 c 0,-3.80682 2.9356,-6.55303 6.9508,-6.55303 1.1742,0 2.5,0.20834 2.9545,0.34091 v -5.41666 c -0.5681,-0.0758 -1.6856,-0.13258 -2.4053,-0.13258 -3.4091,0 -6.3257,1.93182 -7.3863,5.05682 h -0.3031 v -4.62121 h -5.4734 z m 24.9811,10.90908 c 4.678,0 7.6325,-2.44318 9.3181,-7.02651 l 11.9887,-32.97346 h -6.0796 l -7.3674,22.57574 h -0.303 l -7.3674,-22.57574 h -6.0606 l 10.6439,29.46968 -0.7008,1.93181 c -1.4394,3.86364 -3.4659,4.18561 -6.5719,3.33334 l -1.3637,4.64014 c 0.6818,0.30303 2.1591,0.625 3.8637,0.625 z m 32.178,-16.21211 h -5.4545 l -0.1894,2.12121 c -0.4356,5.13258 -1.6477,10.30303 -2.1591,12.65151 h 4.0152 c 0.909,-2.48106 2.9166,-8.16287 3.5037,-12.70832 z m 21.4962,5.30303 h 5.6629 V 750.3254 h -5.6629 z m 2.8598,-33.57953 c 1.9508,0 3.5796,-1.51515 3.5796,-3.37121 0,-1.85606 -1.6288,-3.39015 -3.5796,-3.39015 -1.9696,0 -3.5795,1.53409 -3.5795,3.39015 0,1.85606 1.6099,3.37121 3.5795,3.37121 z m 16.0796,16.30681 c 0,-4.64015 2.8409,-7.29166 6.7803,-7.29166 3.8447,0 6.1742,2.51894 6.1742,6.74242 v 17.82196 h 5.6629 v -18.50378 c 0,-7.19696 -3.9584,-10.9659 -9.9053,-10.9659 -4.375,0 -7.2349,2.02651 -8.5796,5.11363 h -0.3598 v -4.73484 h -5.4356 v 29.09089 h 5.6629 z m 47.9924,-4.7159 c -1.1742,-4.52652 -4.7159,-7.48106 -11.0038,-7.48106 -6.5719,0 -11.231,3.46591 -11.231,8.61742 0,4.12878 2.5,6.875 7.9545,8.08712 l 4.9242,1.07954 c 2.8031,0.625 4.1099,1.875 4.1099,3.69318 0,2.25379 -2.4053,4.01515 -6.1174,4.01515 -3.3902,0 -5.5682,-1.45833 -6.25,-4.31818 l -5.4735,0.83333 c 0.947,5.15152 5.2273,8.04924 11.7613,8.04924 7.0266,0 11.894,-3.73106 11.894,-8.99621 0,-4.10984 -2.6137,-6.64772 -7.9546,-7.87878 l -4.6212,-1.0606 c -3.2007,-0.75758 -4.5833,-1.83712 -4.5644,-3.80682 -0.019,-2.23485 2.4053,-3.82576 5.625,-3.82576 3.5228,0 5.1515,1.95076 5.8144,3.90152 z m 6.7802,32.8977 h 5.6629 v -15.43559 h 0.3409 c 1.0227,1.85606 3.1061,5.09469 8.4091,5.09469 7.0455,0 12.1591,-5.64393 12.1591,-15.05681 0,-9.43181 -5.1894,-14.98105 -12.2159,-14.98105 -5.3977,0 -7.3485,3.29545 -8.3523,5.09469 h -0.4735 v -4.7159 h -5.5303 z m 5.5493,-25.45453 c 0,-6.07954 2.6515,-10.11363 7.5947,-10.11363 5.1325,0 7.7083,4.33712 7.7083,10.11363 0,5.83333 -2.6515,10.28409 -7.7083,10.28409 -4.8675,0 -7.5947,-4.16667 -7.5947,-10.28409 z m 27.3674,14.54545 h 5.6628 V 750.3254 h -5.6628 z m 2.8598,-33.57953 c 1.9508,0 3.5796,-1.51515 3.5796,-3.37121 0,-1.85606 -1.6288,-3.39015 -3.5796,-3.39015 -1.9697,0 -3.5795,1.53409 -3.5795,3.39015 0,1.85606 1.6098,3.37121 3.5795,3.37121 z m 10.4167,33.57953 h 5.6628 v -17.76514 c 0,-3.80682 2.9356,-6.55303 6.9508,-6.55303 1.1742,0 2.5,0.20834 2.9545,0.34091 v -5.41666 c -0.5682,-0.0758 -1.6856,-0.13258 -2.4053,-0.13258 -3.4091,0 -6.3257,1.93182 -7.3863,5.05682 h -0.3031 v -4.62121 h -5.4734 z m 31.9696,0.58712 c 6.3447,0 10.8334,-3.125 12.1213,-7.85984 l -5.3599,-0.96591 c -1.0227,2.74621 -3.4848,4.14772 -6.7045,4.14772 -4.8485,0 -8.1061,-3.14393 -8.2576,-8.74999 h 20.6818 v -2.00758 c 0,-10.51135 -6.2879,-14.6212 -12.8788,-14.6212 -8.106,0 -13.4469,6.17424 -13.4469,15.11363 0,9.03408 5.2651,14.94317 13.8446,14.94317 z m -8.1818,-17.67044 c 0.2273,-4.12879 3.2197,-7.70833 7.822,-7.70833 4.3939,0 7.2727,3.25757 7.2917,7.70833 z m 37.8599,17.6515 c 5.3031,0 7.3864,-3.23863 8.4091,-5.09469 h 0.4735 v 4.52651 h 5.5303 v -38.78786 h -5.6629 v 14.41287 h -0.3409 c -1.0227,-1.79924 -2.9545,-5.09469 -8.3712,-5.09469 -7.0265,0 -12.197,5.54924 -12.197,14.98105 0,9.41288 5.0947,15.05681 12.1591,15.05681 z m 1.25,-4.82954 c -5.0568,0 -7.6894,-4.45076 -7.6894,-10.28409 0,-5.77651 2.5758,-10.11363 7.6894,-10.11363 4.9432,0 7.5947,4.03409 7.5947,10.11363 0,6.11742 -2.7083,10.28409 -7.5947,10.28409 z m 35.8144,4.26136 h 5.5303 v -4.52651 h 0.4735 c 1.0227,1.85606 3.1061,5.09469 8.4091,5.09469 7.0454,0 12.1591,-5.64393 12.1591,-15.05681 0,-9.43181 -5.1894,-14.98105 -12.2159,-14.98105 -5.3977,0 -7.3485,3.29545 -8.3523,5.09469 h -0.3409 v -14.41287 h -5.6629 z m 5.5493,-14.54545 c 0,-6.07954 2.6515,-10.11363 7.5947,-10.11363 5.1325,0 7.7083,4.33712 7.7083,10.11363 0,5.83333 -2.6515,10.28409 -7.7083,10.28409 -4.8675,0 -7.5947,-4.16667 -7.5947,-10.28409 z m 29.9241,25.45453 c 4.678,0 7.6326,-2.44318 9.3182,-7.02651 l 11.9886,-32.97346 h -6.0795 l -7.3674,22.57574 h -0.3031 l -7.3674,-22.57574 h -6.0606 l 10.6439,29.46968 -0.7007,1.93181 c -1.4394,3.86364 -3.4659,4.18561 -6.572,3.33334 l -1.3636,4.64014 c 0.6818,0.30303 2.1591,0.625 3.8636,0.625 z m 41.2122,-10.90908 h 14.8674 c 9.0151,0 13.0871,-4.48863 13.0871,-10.4356 0,-6.00378 -4.2045,-9.39393 -8.0492,-9.60227 v -0.37878 c 3.5606,-0.9091 6.5341,-3.33334 6.5341,-8.18182 0,-5.73863 -3.9773,-10.18939 -12.2349,-10.18939 h -14.2045 z m 5.8522,-5.01894 v -12.42423 h 8.6553 c 4.697,0 7.6326,3.0303 7.6326,6.72348 0,3.25757 -2.2159,5.70075 -7.8409,5.70075 z m 0,-16.98862 v -11.79924 h 7.9925 c 4.6401,0 6.856,2.44318 6.856,5.66288 0,3.74999 -3.0682,6.13636 -7.0076,6.13636 z m 41.1175,22.59468 c 6.3446,0 10.8333,-3.125 12.1212,-7.85984 l -5.3599,-0.96591 c -1.0227,2.74621 -3.4848,4.14772 -6.7045,4.14772 -4.8485,0 -8.1061,-3.14393 -8.2576,-8.74999 h 20.6818 v -2.00758 c 0,-10.51135 -6.2879,-14.6212 -12.8788,-14.6212 -8.106,0 -13.4469,6.17424 -13.4469,15.11363 0,9.03408 5.2651,14.94317 13.8447,14.94317 z m -8.1819,-17.67044 c 0.2273,-4.12879 3.2197,-7.70833 7.822,-7.70833 4.3939,0 7.2727,3.25757 7.2917,7.70833 z m 50.9849,-12.00757 h -6.0795 l -7.3485,22.38635 h -0.303 l -7.3675,-22.38635 h -6.0795 l 10.5682,29.09089 h 6.0606 z m 8.9015,39.99997 c 4.678,0 7.6325,-2.44318 9.3181,-7.02651 l 11.9887,-32.97346 h -6.0796 l -7.3674,22.57574 h -0.303 l -7.3674,-22.57574 h -6.0606 l 10.6439,29.46968 -0.7008,1.93181 c -1.4394,3.86364 -3.4659,4.18561 -6.5719,3.33334 l -1.3637,4.64014 c 0.6818,0.30303 2.1591,0.625 3.8637,0.625 z m 43.1627,-10.90908 h -24.6401 v 4.8106 h 24.6401 z m 4.2046,0 h 5.8522 v -14.67802 h 7.9546 c 0.1326,0 0.2462,0 0.3788,0 l 7.8788,14.67802 h 6.6666 l -8.5985,-15.70075 c 4.7538,-1.76136 7.1212,-5.71969 7.1212,-10.92802 0,-7.14015 -4.4318,-12.15909 -13.428,-12.15909 h -13.8257 z m 5.8522,-19.7159 v -14.05302 h 7.3485 c 5.7765,0 8.1629,2.74621 8.1629,7.14015 0,4.375 -2.3864,6.91287 -8.0871,6.91287 z m 40.2653,20.30302 c 6.3447,0 10.8333,-3.125 12.1212,-7.85984 l -5.3599,-0.96591 c -1.0227,2.74621 -3.4848,4.14772 -6.7045,4.14772 -4.8485,0 -8.1061,-3.14393 -8.2576,-8.74999 h 20.6818 v -2.00758 c 0,-10.51135 -6.2878,-14.6212 -12.8787,-14.6212 -8.1061,0 -13.447,6.17424 -13.447,15.11363 0,9.03408 5.2651,14.94317 13.8447,14.94317 z m -8.1818,-17.67044 c 0.2272,-4.12879 3.2197,-7.70833 7.8219,-7.70833 4.394,0 7.2728,3.25757 7.2917,7.70833 z m 32.6325,-0.1894 c 0,-4.64015 2.8409,-7.29166 6.7803,-7.29166 3.8447,0 6.1742,2.51894 6.1742,6.74242 v 17.82196 h 5.6629 v -18.50378 c 0,-7.19696 -3.9583,-10.9659 -9.9053,-10.9659 -4.375,0 -7.2349,2.02651 -8.5796,5.11363 h -0.3598 v -4.73484 h -5.4356 v 29.09089 h 5.6629 z m 38.731,17.85984 c 6.3447,0 10.8334,-3.125 12.1212,-7.85984 l -5.3598,-0.96591 c -1.0227,2.74621 -3.4848,4.14772 -6.7045,4.14772 -4.8485,0 -8.1061,-3.14393 -8.2576,-8.74999 h 20.6818 v -2.00758 c 0,-10.51135 -6.2879,-14.6212 -12.8788,-14.6212 -8.106,0 -13.4469,6.17424 -13.4469,15.11363 0,9.03408 5.2651,14.94317 13.8446,14.94317 z m -8.1818,-17.67044 c 0.2273,-4.12879 3.2197,-7.70833 7.822,-7.70833 4.3939,0 7.2727,3.25757 7.2917,7.70833 z m 40.5493,-12.00757 h -5.9659 v -6.96969 h -5.6629 v 6.96969 h -4.2613 v 4.54545 h 4.2613 v 17.17802 c -0.019,5.28409 4.0152,7.8409 8.4849,7.74621 1.7992,-0.0189 3.0113,-0.35985 3.6742,-0.60606 l -1.0227,-4.67803 c -0.3788,0.0758 -1.0796,0.24621 -1.9886,0.24621 -1.8372,0 -3.4849,-0.60606 -3.4849,-3.88257 v -16.00378 h 5.9659 z m 31.6666,29.64013 c 3.5038,0 7.3864,-1.17424 10,-3.61742 l 2.6136,3.06818 h 6.4015 l -5.5113,-6.59091 c 1.6477,-2.19696 3.2197,-5.64393 3.2197,-11.02272 h -5.1137 c 0,2.5947 -0.606,4.9053 -1.6098,6.83712 l -7.7651,-9.2803 2.6515,-1.95075 c 3.2197,-2.34849 5.1515,-5.05682 5.1515,-8.75 0,-4.52651 -3.6553,-8.44696 -9.6212,-8.44696 -5.9091,0 -9.7917,3.80681 -9.7917,9.16666 0,3.46591 1.8182,6.21212 4.2614,9.1856 -4.4318,3.06818 -7.4432,5.92803 -7.4432,10.54924 0,6.23105 4.7538,10.85226 12.5568,10.85226 z m 6.8182,-7.36742 c -2.0076,1.66667 -4.4129,2.57576 -6.7993,2.57576 -4.2045,0 -6.9507,-2.85985 -6.9507,-6.21212 0,-1.19318 1.0038,-3.57954 4.0341,-5.81439 l 1.0227,-0.75758 z m -7.7083,-17.00756 c -1.7614,-2.15909 -3.144,-4.14773 -3.144,-6.11742 0,-2.25379 1.8561,-4.52652 4.5833,-4.52652 2.6137,0 4.3182,2.04546 4.3182,3.86364 0,2.3106 -1.2689,3.71212 -3.3712,5.09469 z m 38.9015,23.82574 h 14.8674 c 9.0152,0 13.0871,-4.48863 13.0871,-10.4356 0,-6.00378 -4.2045,-9.39393 -8.0492,-9.60227 v -0.37878 c 3.5606,-0.9091 6.5341,-3.33334 6.5341,-8.18182 0,-5.73863 -3.9773,-10.18939 -12.2349,-10.18939 h -14.2045 z m 5.8523,-5.01894 v -12.42423 h 8.6553 c 4.6969,0 7.6325,3.0303 7.6325,6.72348 0,3.25757 -2.2159,5.70075 -7.8409,5.70075 z m 0,-16.98862 v -11.79924 h 7.9924 c 4.6401,0 6.856,2.44318 6.856,5.66288 0,3.74999 -3.0681,6.13636 -7.0075,6.13636 z m 28.5795,22.00756 h 5.6629 v -17.76514 c 0,-3.80682 2.9356,-6.55303 6.9507,-6.55303 1.1743,0 2.5,0.20834 2.9546,0.34091 v -5.41666 c -0.5682,-0.0758 -1.6856,-0.13258 -2.4053,-0.13258 -3.4091,0 -6.3258,1.93182 -7.3864,5.05682 h -0.303 v -4.62121 h -5.4735 z m 20.4924,0 h 5.6629 V 750.3254 h -5.6629 z m 2.8599,-33.57953 c 1.9507,0 3.5795,-1.51515 3.5795,-3.37121 0,-1.85606 -1.6288,-3.39015 -3.5795,-3.39015 -1.9697,0 -3.5796,1.53409 -3.5796,3.39015 0,1.85606 1.6099,3.37121 3.5796,3.37121 z m 21.3068,34.14771 c 5.303,0 7.3863,-3.23863 8.4091,-5.09469 h 0.4734 v 4.52651 h 5.5303 v -38.78786 h -5.6628 v 14.41287 h -0.3409 c -1.0228,-1.79924 -2.9546,-5.09469 -8.3712,-5.09469 -7.0266,0 -12.197,5.54924 -12.197,14.98105 0,9.41288 5.0947,15.05681 12.1591,15.05681 z m 1.25,-4.82954 c -5.0568,0 -7.6894,-4.45076 -7.6894,-10.28409 0,-5.77651 2.5757,-10.11363 7.6894,-10.11363 4.9432,0 7.5947,4.03409 7.5947,10.11363 0,6.11742 -2.7084,10.28409 -7.5947,10.28409 z m 33.4279,15.7765 c 7.4053,0 13.125,-3.39015 13.125,-10.8712 V 750.3254 h -5.5493 v 4.7159 h -0.4166 c -1.0038,-1.79924 -3.0114,-5.09469 -8.4281,-5.09469 -7.0265,0 -12.1969,5.54924 -12.1969,14.8106 0,9.2803 5.2841,14.22347 12.1591,14.22347 5.3409,0 7.4053,-3.01136 8.428,-4.86742 h 0.3598 v 5.7197 c 0,4.56439 -3.125,6.53408 -7.4242,6.53408 -4.7159,0 -6.553,-2.36742 -7.5568,-4.03409 l -4.8674,2.00758 c 1.5341,3.5606 5.4166,6.5909 12.3674,6.5909 z m -0.057,-16.64771 c -5.0568,0 -7.6894,-3.88258 -7.6894,-9.60227 0,-5.58712 2.5757,-9.92424 7.6894,-9.92424 4.9431,0 7.5947,4.03409 7.5947,9.92424 0,6.00378 -2.7084,9.60227 -7.5947,9.60227 z m 33.3143,5.71969 c 6.3447,0 10.8333,-3.125 12.1212,-7.85984 l -5.3598,-0.96591 c -1.0227,2.74621 -3.4849,4.14772 -6.7046,4.14772 -4.8484,0 -8.106,-3.14393 -8.2575,-8.74999 h 20.6818 v -2.00758 c 0,-10.51135 -6.2879,-14.6212 -12.8788,-14.6212 -8.1061,0 -13.447,6.17424 -13.447,15.11363 0,9.03408 5.2652,14.94317 13.8447,14.94317 z m -8.1818,-17.67044 c 0.2273,-4.12879 3.2197,-7.70833 7.822,-7.70833 4.3939,0 7.2727,3.25757 7.2916,7.70833 z m 58.7311,-21.70454 h -5.7954 v 28.48484 h -0.3599 l -19.7348,-28.48484 h -5.4167 v 38.78786 h 5.8523 v -28.44695 h 0.3598 l 19.7159,28.44695 h 5.3788 z m 20.606,39.37498 c 6.3447,0 10.8333,-3.125 12.1212,-7.85984 l -5.3598,-0.96591 c -1.0228,2.74621 -3.4849,4.14772 -6.7046,4.14772 -4.8485,0 -8.106,-3.14393 -8.2576,-8.74999 h 20.6818 v -2.00758 c 0,-10.51135 -6.2878,-14.6212 -12.8787,-14.6212 -8.1061,0 -13.447,6.17424 -13.447,15.11363 0,9.03408 5.2652,14.94317 13.8447,14.94317 z m -8.1818,-17.67044 c 0.2273,-4.12879 3.2197,-7.70833 7.8219,-7.70833 4.394,0 7.2728,3.25757 7.2917,7.70833 z m 40.5493,-12.00757 h -5.9659 v -6.96969 h -5.6629 v 6.96969 h -4.2614 v 4.54545 h 4.2614 v 17.17802 c -0.019,5.28409 4.0151,7.8409 8.4848,7.74621 1.7993,-0.0189 3.0114,-0.35985 3.6743,-0.60606 l -1.0228,-4.67803 c -0.3787,0.0758 -1.0795,0.24621 -1.9886,0.24621 -1.8371,0 -3.4848,-0.60606 -3.4848,-3.88257 v -16.00378 h 5.9659 z m 6.1741,29.09089 h 25.5303 v -5.01894 h -17.4621 v -0.28409 l 7.7083,-8.06817 c 7.1023,-7.17803 9.1288,-10.60606 9.1288,-14.94318 0,-6.23105 -5.0757,-11.00378 -12.3863,-11.00378 -7.2538,0 -12.5568,4.69697 -12.5568,11.7803 h 5.5871 c -0.019,-4.16667 2.6704,-6.89394 6.856,-6.89394 3.9394,0 6.9319,2.42424 6.9319,6.28788 0,3.42803 -2.0455,5.89015 -6.2122,10.30302 l -13.125,13.59848 z m 40.1516,-5.30303 h -5.4546 l -0.1893,2.12121 c -0.4357,5.13258 -1.6478,10.30303 -2.1591,12.65151 h 4.0151 c 0.9091,-2.48106 2.9167,-8.16287 3.5038,-12.70832 z m 21.4961,5.30303 h 5.6629 v -17.9356 c 0,-3.92045 2.7462,-6.64772 5.9659,-6.64772 3.1439,0 5.3219,2.08333 5.3219,5.24621 v 19.33711 h 5.644 v -18.54166 c 0,-3.50378 2.1401,-6.04166 5.8333,-6.04166 2.9924,0 5.4546,1.66667 5.4546,5.60606 v 18.97726 h 5.6628 v -19.50756 c 0,-6.64773 -3.7121,-9.96212 -8.9772,-9.96212 -4.1856,0 -7.3296,2.00757 -8.7311,5.11363 h -0.303 c -1.269,-3.18181 -3.9394,-5.11363 -7.822,-5.11363 -3.8447,0 -6.7045,1.91288 -7.9167,5.11363 h -0.3598 v -4.73484 h -5.4356 z m 55.5871,0.64394 c 4.8106,0 7.519,-2.44318 8.5985,-4.62121 h 0.2273 v 3.97727 h 5.5303 v -19.31817 c 0,-8.4659 -6.6667,-10.15151 -11.2879,-10.15151 -5.2652,0 -10.1136,2.12121 -12.0076,7.42424 l 5.322,1.21212 c 0.8333,-2.06439 2.9545,-4.05303 6.7614,-4.05303 3.6553,0 5.5303,1.91288 5.5303,5.20833 v 0.13258 c 0,2.06439 -2.1213,2.02651 -7.3485,2.63257 -5.5114,0.64394 -11.1553,2.08333 -11.1553,8.69318 0,5.71969 4.2992,8.86363 9.8295,8.86363 z m 1.2311,-4.54545 c -3.2008,0 -5.5114,-1.4394 -5.5114,-4.24242 0,-3.03031 2.6894,-4.10985 5.9659,-4.54546 1.8371,-0.24621 6.1932,-0.73863 7.0076,-1.55303 v 3.75 c 0,3.44697 -2.7462,6.59091 -7.4621,6.59091 z m 31.5529,4.46969 c 5.303,0 7.3864,-3.23863 8.4091,-5.09469 h 0.4735 v 4.52651 h 5.5303 v -38.78786 h -5.6629 v 14.41287 h -0.3409 c -1.0227,-1.79924 -2.9546,-5.09469 -8.3712,-5.09469 -7.0265,0 -12.197,5.54924 -12.197,14.98105 0,9.41288 5.0947,15.05681 12.1591,15.05681 z m 1.25,-4.82954 c -5.0568,0 -7.6894,-4.45076 -7.6894,-10.28409 0,-5.77651 2.5758,-10.11363 7.6894,-10.11363 4.9432,0 7.5947,4.03409 7.5947,10.11363 0,6.11742 -2.7083,10.28409 -7.5947,10.28409 z m 33.7689,4.84848 c 6.3447,0 10.8334,-3.125 12.1212,-7.85984 l -5.3598,-0.96591 c -1.0227,2.74621 -3.4848,4.14772 -6.7045,4.14772 -4.8485,0 -8.1061,-3.14393 -8.2576,-8.74999 h 20.6818 v -2.00758 c 0,-10.51135 -6.2879,-14.6212 -12.8788,-14.6212 -8.106,0 -13.4469,6.17424 -13.4469,15.11363 0,9.03408 5.2651,14.94317 13.8446,14.94317 z m -8.1818,-17.67044 c 0.2273,-4.12879 3.2197,-7.70833 7.822,-7.70833 4.3939,0 7.2727,3.25757 7.2917,7.70833 z m 54.9432,-12.00757 h -6.2689 v -2.61364 c 0,-2.57575 1.0606,-3.97727 3.8258,-3.97727 1.1742,0 2.0075,0.26515 2.5378,0.43561 l 1.3258,-4.58333 c -0.7955,-0.30303 -2.4432,-0.77652 -4.7348,-0.77652 -4.6023,0 -8.6364,2.6894 -8.6364,8.14394 v 3.37121 h -4.4886 v 4.54545 h 4.4886 v 24.54544 h 5.6818 v -24.54544 h 6.2689 z m 16.9318,29.67801 c 8.2008,0 13.5606,-6.00378 13.5606,-14.99999 0,-9.05303 -5.3598,-15.05681 -13.5606,-15.05681 -8.2007,0 -13.5606,6.00378 -13.5606,15.05681 0,8.99621 5.3599,14.99999 13.5606,14.99999 z m 0.019,-4.75378 c -5.3599,0 -7.8599,-4.67803 -7.8599,-10.26515 0,-5.56818 2.5,-10.30302 7.8599,-10.30302 5.322,0 7.822,4.73484 7.822,10.30302 0,5.58712 -2.5,10.26515 -7.822,10.26515 z m 19.8485,4.16666 h 5.6629 v -17.76514 c 0,-3.80682 2.9356,-6.55303 6.9507,-6.55303 1.1743,0 2.5,0.20834 2.9546,0.34091 v -5.41666 c -0.5682,-0.0758 -1.6857,-0.13258 -2.4053,-0.13258 -3.4091,0 -6.3258,1.93182 -7.3864,5.05682 h -0.303 v -4.62121 h -5.4735 z m 35.0756,0 h 24.5455 v -5.03788 h -18.6932 v -11.87499 h 17.1969 v -5.01894 h -17.1969 v -11.81817 h 18.4659 v -5.03788 h -24.3182 z m 64.3751,-26.17423 c -1.3258,-8.29545 -7.822,-13.14393 -16.0227,-13.14393 -10.0379,0 -17.4432,7.51894 -17.4432,19.92423 0,12.4053 7.3674,19.92423 17.4432,19.92423 8.5227,0 14.7538,-5.3409 16.0227,-13.01135 l -5.9091,-0.0189 c -1.0038,4.96212 -5.1704,7.68939 -10.0757,7.68939 -6.6478,0 -11.6667,-5.0947 -11.6667,-14.58333 0,-9.41287 5,-14.58332 11.6856,-14.58332 4.9432,0 9.0909,2.78409 10.0568,7.80302 z m 28.1628,-2.42424 h 5.6439 c -0.1704,-6.21212 -5.6629,-10.71969 -13.5416,-10.71969 -7.7841,0 -13.75,4.45076 -13.75,11.13636 0,5.39772 3.8636,8.5606 10.0947,10.2462 l 4.5833,1.25 c 4.1477,1.09849 7.3485,2.46212 7.3485,5.90909 0,3.78788 -3.6175,6.28788 -8.5985,6.28788 -4.5076,0 -8.2576,-2.00758 -8.5985,-6.23106 h -5.8712 c 0.3788,7.02651 5.8144,11.36363 14.5076,11.36363 9.1098,0 14.356,-4.79167 14.356,-11.36363 0,-6.98863 -6.231,-9.69696 -11.1553,-10.90909 l -3.7879,-0.98484 c -3.0303,-0.77652 -7.0643,-2.19697 -7.0454,-5.90909 0,-3.29545 3.0114,-5.73863 7.7841,-5.73863 4.4507,0 7.6136,2.08333 8.0303,5.66287 z m 16.4393,28.95832 c 2.0644,0 3.7879,-1.68561 3.7879,-3.78788 0,-2.06439 -1.7235,-3.76894 -3.7879,-3.76894 -2.0833,0 -3.7879,1.70455 -3.7879,3.76894 0,2.10227 1.7046,3.78788 3.7879,3.78788 z"
       id="path95" />
  </g>
</svg>
